<svg id="Group_1099" data-name="Group 1099" xmlns="http://www.w3.org/2000/svg" width="130.52" height="138.774" viewBox="0 0 130.52 138.774">
  <path id="Path_6144" data-name="Path 6144" d="M314.951,71.475h-3.819a1.91,1.91,0,1,1,3.819,0Z" transform="translate(-247.782 -66.058)" fill="#c9a765"/>
  <path id="Path_6145" data-name="Path 6145" d="M314.951,74.843a1.91,1.91,0,0,1-1.909,1.91,1.94,1.94,0,0,1-.2-.01,1.91,1.91,0,0,1-1.714-1.9Z" transform="translate(-247.782 -69.425)" fill="#7c6a2e"/>
  <path id="Path_6146" data-name="Path 6146" d="M313.969,59.874h0a23.137,23.137,0,0,1-1.384,2.794h2.768A23.143,23.143,0,0,1,313.969,59.874Z" transform="translate(-248.709 -59.873)" fill="#c9a765"/>
  <path id="Path_6147" data-name="Path 6147" d="M313.969,67.6h-1.384l.8.8a1.907,1.907,0,0,1,.58-.09h0a1.91,1.91,0,0,1,.58.09l.8-.8Z" transform="translate(-248.709 -64.8)" fill="#7c6a2e"/>
  <g id="Group_1098" data-name="Group 1098" transform="translate(0 6.4)">
    <path id="Path_6148" data-name="Path 6148" d="M259.886,161.667c-.181.118-.36.239-.539.36l.388.5c.184-.124.367-.249.553-.368a36.144,36.144,0,0,1,16.579-5.674c0-.211.017-.421.029-.631A36.781,36.781,0,0,0,259.886,161.667Z" transform="translate(-214.737 -127.518)" fill="#76858b"/>
    <path id="Path_6149" data-name="Path 6149" d="M227.853,163.941a43.058,43.058,0,0,0-8.55,8.941l-.553-.308a43.68,43.68,0,0,1,8.717-9.13Z" transform="translate(-188.833 -132.363)" fill="#76858b"/>
    <path id="Path_6150" data-name="Path 6150" d="M313.068,393.017q-.952,0-1.895-.037c.082.089.164.177.246.263l.371.386q.637.016,1.277.017h0q.64,0,1.277-.017l.371-.386c.083-.086.165-.174.246-.263Q314.019,393.016,313.068,393.017Z" transform="translate(-247.808 -278.831)" fill="#76858b"/>
    <path id="Path_6151" data-name="Path 6151" d="M299.577,321.348a21.069,21.069,0,0,0,3.843.7v.63a21.409,21.409,0,0,1-3.628-.623Z" transform="translate(-240.408 -233.122)" fill="#76858b"/>
    <path id="Path_6152" data-name="Path 6152" d="M183.239,160.5c.166.066.369.135.6.2h0a49.13,49.13,0,0,1,37.526-36.392c-.08-.18-.177-.376-.292-.581a49.763,49.763,0,0,0-37.833,36.77Z" transform="translate(-166.172 -107.019)" fill="#76858b"/>
    <path id="Path_6153" data-name="Path 6153" d="M204.225,204.7a42.352,42.352,0,0,0-3.118,8.3q-.329,0-.651,0h0a43,43,0,0,1,3.2-8.571Z" transform="translate(-177.159 -158.519)" fill="#76858b"/>
    <path id="Path_6154" data-name="Path 6154" d="M197.916,238.638a42.886,42.886,0,0,0,.375,15.718q-.3.107-.6.219h0a43.5,43.5,0,0,1-.4-16.038Z" transform="translate(-174.785 -180.28)" fill="#76858b"/>
    <path id="Path_6155" data-name="Path 6155" d="M388.6,163.7a43.025,43.025,0,0,1,9.455,10.18q.368-.021.736-.026h0a43.669,43.669,0,0,0-9.8-10.652Z" transform="translate(-297.214 -132.206)" fill="#76858b"/>
    <path id="Path_6156" data-name="Path 6156" d="M360.387,207.139a24.844,24.844,0,0,1,2.009,1.992l-.581.3a23.541,23.541,0,0,0-1.816-1.79Z" transform="translate(-278.964 -160.245)" fill="#76858b"/>
    <path id="Path_6157" data-name="Path 6157" d="M367.7,190.652a30.985,30.985,0,0,1,5.12,5.026l-.573.292a30.347,30.347,0,0,0-4.933-4.821Z" transform="translate(-283.631 -149.724)" fill="#76858b"/>
    <path id="Path_6158" data-name="Path 6158" d="M377.957,177.422a36.7,36.7,0,0,1,6.79,6.887h0q.292-.14.587-.267a37.343,37.343,0,0,0-6.992-7.117Z" transform="translate(-290.423 -140.965)" fill="#76858b"/>
    <path id="Path_6159" data-name="Path 6159" d="M180.419,229.526a49.7,49.7,0,0,0,1.84,26.938h0l.567-.285a49.077,49.077,0,0,1-1.909-25.95,4.225,4.225,0,0,1-.5-.7Z" transform="translate(-163.696 -174.53)" fill="#76858b"/>
    <path id="Path_6160" data-name="Path 6160" d="M214.241,249.205q-.127,1.533-.128,3.1a37.045,37.045,0,0,0,.741,7.391l.623-.094a36.4,36.4,0,0,1-.736-7.3q0-1.528.125-3.024c-.216-.02-.421-.047-.623-.075Z" transform="translate(-185.873 -187.087)" fill="#76858b"/>
    <path id="Path_6161" data-name="Path 6161" d="M231.491,257.578a30.724,30.724,0,0,0,.681,6.519L232.8,264a30.066,30.066,0,0,1-.676-6.411h0c-.2,0-.514-.009-.629-.014Z" transform="translate(-196.962 -192.43)" fill="#76858b"/>
    <path id="Path_6162" data-name="Path 6162" d="M249.182,264.328a24.114,24.114,0,0,0,.423,2.73l.58-.3a23.653,23.653,0,0,1-.372-2.442h0c-.262,0-.4,0-.634.008Z" transform="translate(-208.25 -196.733)" fill="#76858b"/>
    <path id="Path_6163" data-name="Path 6163" d="M256.145,359.341A42.017,42.017,0,0,0,274.07,365.1s-1.892.072-3.3.219a41.531,41.531,0,0,1-14.839-5.375S256.111,359.482,256.145,359.341Z" transform="translate(-212.556 -257.366)" fill="#76858b"/>
    <path id="Path_6164" data-name="Path 6164" d="M262.557,342.93a33.761,33.761,0,0,0,4.288,2.314q.13.327.287.654l.1.205a34.284,34.284,0,0,1-4.917-2.6Z" transform="translate(-216.63 -246.894)" fill="#76858b"/>
    <path id="Path_6165" data-name="Path 6165" d="M252.2,374.039a4.138,4.138,0,0,1-.241-.682,48.722,48.722,0,0,1-19.231-8.047v0c-1.123-.516-3.527-1.894-3.527-1.894h0A49.426,49.426,0,0,0,252.2,374.039Z" transform="translate(-195.5 -259.965)" fill="#76858b"/>
    <path id="Path_6166" data-name="Path 6166" d="M270.119,327.222q.851.562,1.741,1.067l-.258.576q-.921-.519-1.8-1.1Z" transform="translate(-221.407 -236.871)" fill="#76858b"/>
    <path id="Path_6167" data-name="Path 6167" d="M292.381,336.188v.63a30.5,30.5,0,0,1-9.541-2.269c-.138-.2-.267-.4-.387-.612q-.091-.158-.174-.319A29.858,29.858,0,0,0,292.381,336.188Z" transform="translate(-229.37 -240.953)" fill="#76858b"/>
    <path id="Path_6168" data-name="Path 6168" d="M221.042,211.714a36.72,36.72,0,0,0-2.29,5.636h0l.674-.043a36.141,36.141,0,0,1,2.187-5.33Z" transform="translate(-188.833 -163.164)" fill="#76858b"/>
    <path id="Path_6169" data-name="Path 6169" d="M239.067,216.642a30.68,30.68,0,0,0-1.738,3.683h0q.334.021.657.051h0a29.913,29.913,0,0,1,1.641-3.448Z" transform="translate(-200.687 -166.309)" fill="#76858b"/>
    <path id="Path_6170" data-name="Path 6170" d="M255.434,224.537a24.192,24.192,0,0,0-1.242,2.516h0q.273.162.539.341a23.791,23.791,0,0,1,1.264-2.57Z" transform="translate(-211.448 -171.346)" fill="#76858b"/>
    <path id="Path_6171" data-name="Path 6171" d="M266.81,207.775l-.385-.5a24.649,24.649,0,0,0-2.933,3.1l.573.292A23.987,23.987,0,0,1,266.81,207.775Z" transform="translate(-217.382 -160.332)" fill="#76858b"/>
    <path id="Path_6172" data-name="Path 6172" d="M253.688,190.9a31,31,0,0,0-5.919,6.128l.567.289a30.353,30.353,0,0,1,5.737-5.92Z" transform="translate(-207.349 -149.881)" fill="#76858b"/>
    <path id="Path_6173" data-name="Path 6173" d="M241.071,177.171a37.333,37.333,0,0,0-7.039,7.244l.554.309a36.708,36.708,0,0,1,6.87-7.056Z" transform="translate(-198.584 -141.122)" fill="#76858b"/>
    <path id="Path_6174" data-name="Path 6174" d="M382.355,160.5c-.166.066-.368.135-.6.2h0a49.13,49.13,0,0,0-37.526-36.392c.08-.18.177-.376.292-.581a49.763,49.763,0,0,1,37.832,36.77Z" transform="translate(-268.902 -107.019)" fill="#76858b"/>
    <path id="Path_6175" data-name="Path 6175" d="M326.276,322.088a23.426,23.426,0,0,1-3.654.616v-.63a22.706,22.706,0,0,0,3.838-.685Z" transform="translate(-255.114 -233.148)" fill="#76858b"/>
    <path id="Path_6176" data-name="Path 6176" d="M345,359.778a43.007,43.007,0,0,1-14.935,5.431c-1.412-.147-3.3-.219-3.3-.219a42.377,42.377,0,0,0,18.028-5.819Z" transform="translate(-257.753 -257.258)" fill="#76858b"/>
    <path id="Path_6177" data-name="Path 6177" d="M361.878,343.471a36.93,36.93,0,0,1-4.959,2.61l.1-.205q.156-.327.287-.654a36.361,36.361,0,0,0,4.308-2.326Z" transform="translate(-276.999 -246.872)" fill="#76858b"/>
    <path id="Path_6178" data-name="Path 6178" d="M363.068,363.414h0s-2.4,1.378-3.527,1.894l0,0a48.726,48.726,0,0,1-19.231,8.047,4.133,4.133,0,0,1-.241.682A49.426,49.426,0,0,0,363.068,363.414Z" transform="translate(-266.247 -259.965)" fill="#76858b"/>
    <path id="Path_6179" data-name="Path 6179" d="M358.937,327.457q-.789.515-1.612.982l.258.576q.851-.48,1.669-1.013Z" transform="translate(-277.258 -237.021)" fill="#76858b"/>
    <path id="Path_6180" data-name="Path 6180" d="M332.725,333.621c-.055.107-.113.212-.174.318-.12.208-.25.413-.388.612a30.486,30.486,0,0,1-9.541,2.269v-.63A29.875,29.875,0,0,0,332.725,333.621Z" transform="translate(-255.114 -240.954)" fill="#76858b"/>
    <path id="Path_6181" data-name="Path 6181" d="M419.35,199.3a42.367,42.367,0,0,1,4.058,10.075q.328,0,.651,0h0a43.008,43.008,0,0,0-4.3-10.626C419.629,198.942,419.491,199.124,419.35,199.3Z" transform="translate(-316.837 -154.895)" fill="#76858b"/>
    <path id="Path_6182" data-name="Path 6182" d="M405.985,211.509a36.085,36.085,0,0,1,2.251,5.453l.674.043h0a36.754,36.754,0,0,0-2.39-5.832C406.106,211.444,406.031,211.481,405.985,211.509Z" transform="translate(-308.308 -162.819)" fill="#76858b"/>
    <path id="Path_6183" data-name="Path 6183" d="M390.561,219.6q.617,1.211,1.127,2.483h0c.215-.02.434-.037.657-.051h0q-.547-1.392-1.223-2.716Z" transform="translate(-298.466 -168.012)" fill="#76858b"/>
    <path id="Path_6184" data-name="Path 6184" d="M375.08,227.486l.561-.286q.387.761.723,1.552h0q-.273.162-.538.341Q375.481,228.273,375.08,227.486Z" transform="translate(-288.587 -173.046)" fill="#76858b"/>
    <path id="Path_6185" data-name="Path 6185" d="M432.419,238.537l-.621.1h0a42.891,42.891,0,0,1-.579,16.637h0l.65-.014h0a43.524,43.524,0,0,0,.551-16.724Z" transform="translate(-324.41 -180.28)" fill="#76858b"/>
    <path id="Path_6186" data-name="Path 6186" d="M415.967,249.2c-.2.028-.408.054-.623.075q.123,1.5.125,3.024a36.393,36.393,0,0,1-.849,7.829l.585.267a37.016,37.016,0,0,0,.893-8.1q0-1.566-.129-3.1Z" transform="translate(-313.818 -187.087)" fill="#76858b"/>
    <path id="Path_6187" data-name="Path 6187" d="M398.175,257.592l.23,0h.038c.122,0,.242-.005.361-.01a30.692,30.692,0,0,1-.783,6.977l-.647.007A30.069,30.069,0,0,0,398.175,257.592Z" transform="translate(-302.813 -192.43)" fill="#76858b"/>
    <path id="Path_6188" data-name="Path 6188" d="M380.608,264.321c.2,0,.381,0,.553.007h.08a24.281,24.281,0,0,1-.785,4.2l-.572-.291a23.651,23.651,0,0,0,.726-3.918Z" transform="translate(-291.652 -196.733)" fill="#76858b"/>
    <path id="Path_6189" data-name="Path 6189" d="M228.552,109.236a19.081,19.081,0,0,0-4.635,5.826,13.608,13.608,0,0,0-1.5,5.914A43.9,43.9,0,0,1,228.552,109.236Z" transform="translate(-191.17 -97.772)" fill="#3b8b4b"/>
    <path id="Path_6190" data-name="Path 6190" d="M241.767,104.493a18.808,18.808,0,0,0-5.058,5.046,12.894,12.894,0,0,0-2.084,5.4A43.125,43.125,0,0,1,241.767,104.493Z" transform="translate(-198.962 -94.745)" fill="#3b8b4b"/>
    <path id="Path_6191" data-name="Path 6191" d="M255.34,101.224a18.759,18.759,0,0,0-5.377,4.29,12.324,12.324,0,0,0-2.578,4.852A43.186,43.186,0,0,1,255.34,101.224Z" transform="translate(-207.104 -92.659)" fill="#3b8b4b"/>
    <path id="Path_6192" data-name="Path 6192" d="M215.723,115.615h0a19.681,19.681,0,0,0-4.1,6.615,14.452,14.452,0,0,0-.841,6.389h0A45.391,45.391,0,0,1,215.723,115.615Z" transform="translate(-183.701 -101.842)" fill="#3b8b4b"/>
    <path id="Path_6193" data-name="Path 6193" d="M201.651,404.72a34.6,34.6,0,0,0,15.729,2.188,27.316,27.316,0,0,0,11.578-3.766q-.288-.063-.574-.13A62.274,62.274,0,0,1,201.651,404.72Z" transform="translate(-177.921 -285.234)" fill="#3b8b4b"/>
    <path id="Path_6194" data-name="Path 6194" d="M178.944,386.554a31.468,31.468,0,0,0,13.983,4.586,24.417,24.417,0,0,0,11.458-1.827l-.305-.138A56.733,56.733,0,0,1,178.944,386.554Z" transform="translate(-163.432 -274.731)" fill="#3b8b4b"/>
    <path id="Path_6195" data-name="Path 6195" d="M161.575,362.827h0a29.77,29.77,0,0,0,12.232,6.532,22.256,22.256,0,0,0,11.089.032l-.143-.1A53.8,53.8,0,0,1,161.575,362.827Z" transform="translate(-152.348 -259.591)" fill="#3b8b4b"/>
    <path id="Path_6196" data-name="Path 6196" d="M149.067,337.6a29.038,29.038,0,0,0,10.5,8.058,20.808,20.808,0,0,0,10.43,1.75l-.075-.077A52.9,52.9,0,0,1,149.067,337.6Z" transform="translate(-144.367 -243.495)" fill="#3b8b4b"/>
    <path id="Path_6197" data-name="Path 6197" d="M140.952,311.777a28.862,28.862,0,0,0,8.8,9.2,19.953,19.953,0,0,0,9.547,3.247l-.062-.09A53.409,53.409,0,0,1,140.952,311.777Z" transform="translate(-139.188 -227.015)" fill="#3b8b4b"/>
    <path id="Path_6198" data-name="Path 6198" d="M136.77,286.083a28.86,28.86,0,0,0,7.163,9.985,19.513,19.513,0,0,0,8.53,4.481l-.06-.127A54.727,54.727,0,0,1,136.77,286.083Z" transform="translate(-136.52 -210.62)" fill="#3b8b4b"/>
    <path id="Path_6199" data-name="Path 6199" d="M136.079,261.124a28.786,28.786,0,0,0,5.593,10.463,19.324,19.324,0,0,0,7.437,5.441c-.018-.06-.037-.12-.055-.18A56.286,56.286,0,0,1,136.079,261.124Z" transform="translate(-136.079 -194.693)" fill="#3b8b4b"/>
    <path id="Path_6200" data-name="Path 6200" d="M138.453,237.37a28.469,28.469,0,0,0,4.1,10.667,19.276,19.276,0,0,0,6.3,6.132c-.013-.081-.026-.163-.038-.245A57.581,57.581,0,0,1,138.453,237.37Z" transform="translate(-137.594 -179.535)" fill="#3b8b4b"/>
    <path id="Path_6201" data-name="Path 6201" d="M143.489,215.179a27.836,27.836,0,0,0,2.707,10.636,19.2,19.2,0,0,0,5.213,6.606c0-.088,0-.175,0-.263A55.939,55.939,0,0,1,143.489,215.179Z" transform="translate(-140.807 -165.375)" fill="#3b8b4b"/>
    <path id="Path_6202" data-name="Path 6202" d="M150.734,194.81a26.89,26.89,0,0,0,1.408,10.405,18.989,18.989,0,0,0,4.2,6.919c.01-.088.019-.177.029-.265A57.121,57.121,0,0,1,150.734,194.81Z" transform="translate(-145.404 -152.377)" fill="#3b8b4b"/>
    <path id="Path_6203" data-name="Path 6203" d="M159.367,176.431a25.7,25.7,0,0,0,.214,10.011,18.589,18.589,0,0,0,3.249,7.106c.02-.084.04-.168.061-.251A60.915,60.915,0,0,1,159.367,176.431Z" transform="translate(-150.692 -140.65)" fill="#3b8b4b"/>
    <path id="Path_6204" data-name="Path 6204" d="M169.1,160.136a24.358,24.358,0,0,0-.873,9.483,17.974,17.974,0,0,0,2.351,7.181c.023-.062.047-.123.071-.185A58.443,58.443,0,0,1,169.1,160.136Z" transform="translate(-156.504 -130.252)" fill="#3b8b4b"/>
    <path id="Path_6205" data-name="Path 6205" d="M179.767,145.954a22.979,22.979,0,0,0-1.848,8.853,17.2,17.2,0,0,0,1.494,7.149l.063-.12A55.075,55.075,0,0,1,179.767,145.954Z" transform="translate(-162.777 -121.202)" fill="#3b8b4b"/>
    <path id="Path_6206" data-name="Path 6206" d="M191.195,133.857a21.694,21.694,0,0,0-2.712,8.149,16.308,16.308,0,0,0,.671,7l.043-.065A51.448,51.448,0,0,1,191.195,133.857Z" transform="translate(-169.445 -113.483)" fill="#3b8b4b"/>
    <path id="Path_6207" data-name="Path 6207" d="M203.228,123.779h0a20.587,20.587,0,0,0-3.463,7.4,15.365,15.365,0,0,0-.11,6.749l.02-.024A48.078,48.078,0,0,1,203.228,123.779Z" transform="translate(-176.441 -107.052)" fill="#3b8b4b"/>
    <path id="Path_6208" data-name="Path 6208" d="M256.226,409.658a70.137,70.137,0,0,1-26.054,5.6,39.807,39.807,0,0,0,17.44-.687,32.586,32.586,0,0,0,8.691-3.745,1.233,1.233,0,0,1-.077-.431Z" transform="translate(-196.12 -289.474)" fill="#3b8b4b"/>
    <path id="Path_6209" data-name="Path 6209" d="M225.974,115.052a36.844,36.844,0,0,0,2.578-5.816,43.9,43.9,0,0,0-6.138,11.74C223.691,119.017,224.9,117.053,225.974,115.052Z" transform="translate(-191.17 -97.772)" fill="#006429"/>
    <path id="Path_6210" data-name="Path 6210" d="M238.683,109.714a34.359,34.359,0,0,0,3.084-5.221,43.125,43.125,0,0,0-7.142,10.443C236.065,113.22,237.438,111.491,238.683,109.714Z" transform="translate(-198.962 -94.745)" fill="#006429"/>
    <path id="Path_6211" data-name="Path 6211" d="M251.841,105.843a32.115,32.115,0,0,0,3.5-4.619,43.186,43.186,0,0,0-7.955,9.142C248.954,108.891,250.459,107.4,251.841,105.843Z" transform="translate(-207.104 -92.659)" fill="#006429"/>
    <path id="Path_6212" data-name="Path 6212" d="M256.226,407.348c-4.274,1.057-8.323,1.973-12.221,2.871-5.1,1.174-9.685,2.266-13.832,3.565a70.136,70.136,0,0,0,26.054-5.6Z" transform="translate(-196.12 -288)" fill="#006429"/>
    <path id="Path_6213" data-name="Path 6213" d="M196.4,220.038c-26.106-1.97-44.445-20.653-47.882-44.667-3.5-24.97,9.282-47.056,29.795-56.364a57.521,57.521,0,0,1,6.037-2.333l-.032-.1-1.62.5a50.889,50.889,0,0,0-19.538,11.543c1.081-2.2,2.09-4.394,2.962-6.61a39.735,39.735,0,0,0,1.981-6.392,45.39,45.39,0,0,0-4.944,13h0a51.1,51.1,0,0,0-3.809,4.031c.835-2.391,1.6-4.768,2.225-7.15a42.916,42.916,0,0,0,1.294-6.93,48.077,48.077,0,0,0-3.554,14.121l-.02.024A51.888,51.888,0,0,0,155.9,137.2c.559-2.542,1.049-5.057,1.4-7.568a46.487,46.487,0,0,0,.521-7.414,51.447,51.447,0,0,0-2,15.089l-.043.065a52.843,52.843,0,0,0-2.91,4.912c.263-2.648.459-5.267.526-7.864a50.194,50.194,0,0,0-.335-7.823,55.075,55.075,0,0,0-.292,15.882l-.063.12a53.933,53.933,0,0,0-2.376,5.317c-.049-2.717-.159-5.4-.392-8.049a54.036,54.036,0,0,0-1.269-8.137,58.444,58.444,0,0,0,1.549,16.478c-.024.062-.047.123-.071.185a54.941,54.941,0,0,0-1.782,5.714c-.373-2.758-.8-5.474-1.346-8.149a57.846,57.846,0,0,0-2.273-8.332,60.913,60.913,0,0,0,3.523,16.865c-.021.084-.041.167-.061.251a55.569,55.569,0,0,0-1.114,6.113c-.717-2.778-1.481-5.512-2.354-8.193a61.659,61.659,0,0,0-3.34-8.385h0a57.12,57.12,0,0,0,5.635,17.059c-.01.088-.02.177-.029.265a55.972,55.972,0,0,0-.343,6.52c-1.093-2.785-2.222-5.525-3.454-8.2a65.564,65.564,0,0,0-4.457-8.273,55.938,55.938,0,0,0,7.917,16.979c0,.088,0,.175,0,.263a56.231,56.231,0,0,0,.563,6.908c-1.518-2.772-3.058-5.5-4.693-8.149a69.6,69.6,0,0,0-5.613-7.97,57.581,57.581,0,0,0,10.37,16.554c.012.082.026.163.038.245a56.478,56.478,0,0,0,1.613,7.2c-2-2.705-4-5.371-6.088-7.945a74.354,74.354,0,0,0-6.792-7.454A56.286,56.286,0,0,0,149.054,184c.018.06.037.12.055.18a57.194,57.194,0,0,0,2.749,7.24c-2.516-2.52-5-5.015-7.552-7.408a80.517,80.517,0,0,0-7.977-6.7,54.726,54.726,0,0,0,15.633,14.339l.06.127a52.112,52.112,0,0,0,4,7.02c-3.042-2.2-6.016-4.4-9.029-6.492a88.071,88.071,0,0,0-9.147-5.7,53.41,53.41,0,0,0,18.289,12.353l.062.09a50.3,50.3,0,0,0,5.3,6.488c-3.552-1.739-6.991-3.5-10.434-5.168a99.745,99.745,0,0,0-10.279-4.417,52.894,52.894,0,0,0,20.853,9.73l.075.077a49.78,49.78,0,0,0,6.518,5.6c-3.976-1.131-7.8-2.318-11.575-3.426a114.782,114.782,0,0,0-11.345-2.853,53.8,53.8,0,0,0,23.178,6.463l.143.1a50.35,50.35,0,0,0,7.572,4.4c-4.253-.414-8.314-.921-12.29-1.376-4.4-.506-8.481-.915-12.317-1a56.734,56.734,0,0,0,25.136,2.621l.305.138a51.965,51.965,0,0,0,8.54,2.962c-4.39.343-8.561.563-12.606.8-4.776.277-9.134.572-13.158,1.144a62.275,62.275,0,0,0,26.733-1.707q.286.067.574.13a54.568,54.568,0,0,0,9.069,1.213h0v-.233A1.226,1.226,0,0,1,196.4,220.038Z" transform="translate(-136.079 -101.842)" fill="#006429"/>
    <path id="Path_6214" data-name="Path 6214" d="M393.443,109.236a19.08,19.08,0,0,1,4.635,5.826,13.612,13.612,0,0,1,1.5,5.914A43.908,43.908,0,0,0,393.443,109.236Z" transform="translate(-300.305 -97.772)" fill="#3b8b4b"/>
    <path id="Path_6215" data-name="Path 6215" d="M378.458,104.493a18.808,18.808,0,0,1,5.058,5.046,12.892,12.892,0,0,1,2.083,5.4A43.123,43.123,0,0,0,378.458,104.493Z" transform="translate(-290.743 -94.745)" fill="#3b8b4b"/>
    <path id="Path_6216" data-name="Path 6216" d="M363.451,101.224a18.758,18.758,0,0,1,5.377,4.29,12.326,12.326,0,0,1,2.578,4.852A43.188,43.188,0,0,0,363.451,101.224Z" transform="translate(-281.167 -92.659)" fill="#3b8b4b"/>
    <path id="Path_6217" data-name="Path 6217" d="M408.254,115.615h0a19.676,19.676,0,0,1,4.1,6.615,14.445,14.445,0,0,1,.841,6.389h0A45.371,45.371,0,0,0,408.254,115.615Z" transform="translate(-309.756 -101.842)" fill="#3b8b4b"/>
    <path id="Path_6218" data-name="Path 6218" d="M383.019,404.72a34.6,34.6,0,0,1-15.728,2.188,27.316,27.316,0,0,1-11.578-3.766q.287-.063.574-.13A62.273,62.273,0,0,0,383.019,404.72Z" transform="translate(-276.229 -285.234)" fill="#3b8b4b"/>
    <path id="Path_6219" data-name="Path 6219" d="M409.014,386.554a31.47,31.47,0,0,1-13.983,4.586,24.418,24.418,0,0,1-11.459-1.827l.305-.138A56.734,56.734,0,0,0,409.014,386.554Z" transform="translate(-294.006 -274.731)" fill="#3b8b4b"/>
    <path id="Path_6220" data-name="Path 6220" d="M430.123,362.827h0a29.771,29.771,0,0,1-12.232,6.532,22.256,22.256,0,0,1-11.089.032l.143-.1A53.8,53.8,0,0,0,430.123,362.827Z" transform="translate(-308.83 -259.591)" fill="#3b8b4b"/>
    <path id="Path_6221" data-name="Path 6221" d="M446.849,337.6a29.036,29.036,0,0,1-10.5,8.058,20.806,20.806,0,0,1-10.43,1.75l.075-.077A52.9,52.9,0,0,0,446.849,337.6Z" transform="translate(-321.029 -243.495)" fill="#3b8b4b"/>
    <path id="Path_6222" data-name="Path 6222" d="M459.51,311.777a28.862,28.862,0,0,1-8.8,9.2,19.953,19.953,0,0,1-9.547,3.247l.061-.09A53.407,53.407,0,0,0,459.51,311.777Z" transform="translate(-330.754 -227.015)" fill="#3b8b4b"/>
    <path id="Path_6223" data-name="Path 6223" d="M468.376,286.083a28.857,28.857,0,0,1-7.164,9.985,19.509,19.509,0,0,1-8.53,4.481l.06-.127A54.732,54.732,0,0,0,468.376,286.083Z" transform="translate(-338.107 -210.62)" fill="#3b8b4b"/>
    <path id="Path_6224" data-name="Path 6224" d="M473.763,261.124a28.791,28.791,0,0,1-5.593,10.463,19.327,19.327,0,0,1-7.437,5.441c.018-.06.037-.12.055-.18A56.293,56.293,0,0,0,473.763,261.124Z" transform="translate(-343.243 -194.693)" fill="#3b8b4b"/>
    <path id="Path_6225" data-name="Path 6225" d="M476.013,237.37a28.462,28.462,0,0,1-4.1,10.667,19.272,19.272,0,0,1-6.3,6.132c.013-.081.026-.163.038-.245A57.581,57.581,0,0,0,476.013,237.37Z" transform="translate(-346.352 -179.535)" fill="#3b8b4b"/>
    <path id="Path_6226" data-name="Path 6226" d="M475.362,215.179a27.836,27.836,0,0,1-2.707,10.636,19.2,19.2,0,0,1-5.214,6.606c0-.088,0-.175,0-.263A55.941,55.941,0,0,0,475.362,215.179Z" transform="translate(-347.524 -165.375)" fill="#3b8b4b"/>
    <path id="Path_6227" data-name="Path 6227" d="M472.074,194.81a26.9,26.9,0,0,1-1.409,10.405,18.994,18.994,0,0,1-4.2,6.919q-.015-.132-.03-.265A57.109,57.109,0,0,0,472.074,194.81Z" transform="translate(-346.884 -152.377)" fill="#3b8b4b"/>
    <path id="Path_6228" data-name="Path 6228" d="M466.554,176.431a25.706,25.706,0,0,1-.214,10.011,18.584,18.584,0,0,1-3.249,7.106q-.03-.126-.06-.251A60.912,60.912,0,0,0,466.554,176.431Z" transform="translate(-344.71 -140.65)" fill="#3b8b4b"/>
    <path id="Path_6229" data-name="Path 6229" d="M459.194,160.136a24.358,24.358,0,0,1,.873,9.483,17.98,17.98,0,0,1-2.352,7.181l-.07-.185A58.443,58.443,0,0,0,459.194,160.136Z" transform="translate(-341.273 -130.252)" fill="#3b8b4b"/>
    <path id="Path_6230" data-name="Path 6230" d="M449.792,145.954a22.983,22.983,0,0,1,1.848,8.853,17.185,17.185,0,0,1-1.494,7.149l-.062-.12A55.086,55.086,0,0,0,449.792,145.954Z" transform="translate(-336.262 -121.202)" fill="#3b8b4b"/>
    <path id="Path_6231" data-name="Path 6231" d="M436.64,133.857a21.7,21.7,0,0,1,2.712,8.149,16.3,16.3,0,0,1-.672,7l-.043-.065A51.447,51.447,0,0,0,436.64,133.857Z" transform="translate(-327.869 -113.483)" fill="#3b8b4b"/>
    <path id="Path_6232" data-name="Path 6232" d="M422.719,123.779h0a20.582,20.582,0,0,1,3.464,7.4,15.371,15.371,0,0,1,.11,6.749l-.02-.024A48.076,48.076,0,0,0,422.719,123.779Z" transform="translate(-318.986 -107.052)" fill="#3b8b4b"/>
    <path id="Path_6233" data-name="Path 6233" d="M330.516,409.658a70.135,70.135,0,0,0,26.053,5.6,39.807,39.807,0,0,1-17.44-.687,32.6,32.6,0,0,1-8.691-3.745,1.225,1.225,0,0,0,.078-.431Z" transform="translate(-260.101 -289.474)" fill="#3b8b4b"/>
    <path id="Path_6234" data-name="Path 6234" d="M396.021,115.052a36.845,36.845,0,0,1-2.578-5.816,43.908,43.908,0,0,1,6.138,11.74C398.3,119.017,397.1,117.053,396.021,115.052Z" transform="translate(-300.305 -97.772)" fill="#006429"/>
    <path id="Path_6235" data-name="Path 6235" d="M381.542,109.714a34.322,34.322,0,0,1-3.084-5.221,43.123,43.123,0,0,1,7.142,10.443C384.16,113.22,382.787,111.491,381.542,109.714Z" transform="translate(-290.743 -94.745)" fill="#006429"/>
    <path id="Path_6236" data-name="Path 6236" d="M366.949,105.843a32.139,32.139,0,0,1-3.5-4.619,43.188,43.188,0,0,1,7.955,9.142C369.837,108.891,368.333,107.4,366.949,105.843Z" transform="translate(-281.167 -92.659)" fill="#006429"/>
    <path id="Path_6237" data-name="Path 6237" d="M330.653,407.348c4.274,1.057,8.322,1.973,12.221,2.871,5.1,1.174,9.685,2.266,13.832,3.565a70.134,70.134,0,0,1-26.053-5.6Z" transform="translate(-260.238 -288)" fill="#006429"/>
    <path id="Path_6238" data-name="Path 6238" d="M330.061,220.038c26.106-1.97,44.445-20.653,47.882-44.667,3.5-24.97-9.282-47.056-29.8-56.364a57.494,57.494,0,0,0-6.037-2.333l.033-.1,1.62.5A50.889,50.889,0,0,1,363.3,128.617c-1.081-2.2-2.09-4.394-2.962-6.61a39.771,39.771,0,0,1-1.981-6.392,45.371,45.371,0,0,1,4.944,13h0a51.039,51.039,0,0,1,3.81,4.031c-.835-2.391-1.6-4.768-2.225-7.15a42.913,42.913,0,0,1-1.294-6.93,48.077,48.077,0,0,1,3.554,14.121l.02.024a51.972,51.972,0,0,1,3.389,4.485c-.559-2.542-1.049-5.057-1.4-7.568a46.524,46.524,0,0,1-.52-7.414,51.446,51.446,0,0,1,2,15.089l.043.065a52.931,52.931,0,0,1,2.91,4.912c-.263-2.648-.459-5.267-.527-7.864a50.2,50.2,0,0,1,.336-7.823,55.087,55.087,0,0,1,.292,15.882l.062.12a53.928,53.928,0,0,1,2.377,5.317c.049-2.717.159-5.4.392-8.049a54.038,54.038,0,0,1,1.269-8.137,58.442,58.442,0,0,1-1.549,16.478l.07.185a54.866,54.866,0,0,1,1.783,5.714c.373-2.758.8-5.474,1.346-8.149a57.839,57.839,0,0,1,2.274-8.332,60.915,60.915,0,0,1-3.523,16.865c.02.084.041.167.06.251a55.566,55.566,0,0,1,1.114,6.113c.717-2.778,1.482-5.512,2.354-8.193a61.61,61.61,0,0,1,3.34-8.385h0a57.109,57.109,0,0,1-5.636,17.059q.015.132.03.265a55.965,55.965,0,0,1,.343,6.52c1.093-2.785,2.222-5.525,3.454-8.2a65.557,65.557,0,0,1,4.457-8.273,55.94,55.94,0,0,1-7.917,16.979c0,.088,0,.175,0,.263a56.161,56.161,0,0,1-.562,6.908c1.518-2.772,3.058-5.5,4.693-8.149a69.554,69.554,0,0,1,5.613-7.97,57.58,57.58,0,0,1-10.37,16.554c-.013.082-.026.163-.038.245a56.473,56.473,0,0,1-1.613,7.2c2-2.705,4-5.371,6.088-7.945a74.357,74.357,0,0,1,6.792-7.454A56.291,56.291,0,0,1,377.405,184c-.018.06-.037.12-.055.18a57.189,57.189,0,0,1-2.749,7.24c2.515-2.52,5-5.015,7.552-7.408a80.562,80.562,0,0,1,7.977-6.7A54.731,54.731,0,0,1,374.5,191.645l-.06.127a52.109,52.109,0,0,1-4,7.02c3.042-2.2,6.016-4.4,9.029-6.492a87.99,87.99,0,0,1,9.147-5.7,53.411,53.411,0,0,1-18.289,12.353l-.061.09a50.293,50.293,0,0,1-5.3,6.488c3.552-1.739,6.991-3.5,10.434-5.168a99.671,99.671,0,0,1,10.279-4.417,52.9,52.9,0,0,1-20.853,9.73l-.075.077a49.78,49.78,0,0,1-6.518,5.6c3.976-1.131,7.8-2.318,11.575-3.426a114.783,114.783,0,0,1,11.345-2.853,53.8,53.8,0,0,1-23.178,6.463l-.143.1a50.355,50.355,0,0,1-7.572,4.4c4.254-.414,8.314-.921,12.29-1.376,4.4-.506,8.482-.915,12.317-1a56.735,56.735,0,0,1-25.137,2.621l-.305.138a51.961,51.961,0,0,1-8.54,2.962c4.391.343,8.561.563,12.606.8,4.776.277,9.134.572,13.158,1.144a62.273,62.273,0,0,1-26.732-1.707q-.286.067-.574.13a54.574,54.574,0,0,1-9.069,1.213h0v-.233A1.229,1.229,0,0,0,330.061,220.038Z" transform="translate(-259.86 -101.842)" fill="#006429"/>
    <path id="Path_6239" data-name="Path 6239" d="M305.111,381.684H309.5a18.351,18.351,0,0,0,1.7-3.14l.309-.733.012-.027H298.7l.32.76a18.29,18.29,0,0,0,1.276,2.479q.206.335.424.661Z" transform="translate(-239.851 -269.135)" fill="#7b0a14"/>
    <path id="Path_6240" data-name="Path 6240" d="M300.036,391.289h.682a1.233,1.233,0,0,0,1.232-1.232v-2.032a1.232,1.232,0,0,0-.757-1.137l3.051-3.5a3,3,0,0,0,.256-3.6l-1.3-2-.012.027-.309.733a18.374,18.374,0,0,1-1.7,3.14h0a18.38,18.38,0,0,1-1.983,2.457l-2.4,2.5-2.4-2.5a18.375,18.375,0,0,1-1.982-2.457h0q-.219-.326-.424-.661a18.291,18.291,0,0,1-1.276-2.479l-.321-.76-1.3,2a3,3,0,0,0,.256,3.6l3.051,3.5a1.232,1.232,0,0,0-.757,1.137v2.032a1.231,1.231,0,0,0,1.232,1.232h.682a25.736,25.736,0,0,1-7.883,5.541h4.776s3.646-2.97,4.932-5.541h2.832c1.286,2.571,4.932,5.541,4.932,5.541h4.776A25.741,25.741,0,0,1,300.036,391.289Z" transform="translate(-231.536 -269.135)" fill="#bb2f3a"/>
    <path id="Path_6241" data-name="Path 6241" d="M298.849,420.64l-.014,4.679c2.936-3.261,5.249-6.565,6.36-9.95,1.111,3.386,3.423,6.69,6.36,9.95l-.014-4.679s-3.646-2.97-4.932-5.541h-2.826C302.5,417.67,298.849,420.64,298.849,420.64Z" transform="translate(-239.935 -292.946)" fill="#7b0a14"/>
    <g id="Group_1095" data-name="Group 1095" transform="translate(48.485 48.573)">
      <circle id="Ellipse_50" data-name="Ellipse 50" cx="16.05" cy="16.05" r="16.05" transform="translate(0 1.484) rotate(-2.649)" fill="#fff"/>
      <path id="Path_6242" data-name="Path 6242" d="M303.933,234.5c-3.481,0-8.291,2.468-11.043,4.067a65.918,65.918,0,0,1-.166-11.649.017.017,0,0,1,.026-.012c1.7,1.074,1.225,4.073.869,4.931-.007.017.018.029.03.015a5.3,5.3,0,0,0,.65-5.986c-.01-.016.013-.031.027-.02a5.074,5.074,0,0,1,1.712,4.739.017.017,0,0,0,.032.008,5,5,0,0,0-1.359-6.172.017.017,0,0,1,.015-.029,4.082,4.082,0,0,1,2.986,4.011c0,.025,0,.051,0,.076s.027.02.033,0a4.434,4.434,0,0,0-.035-2.756,4.07,4.07,0,0,0-3.077-2.466c-.02,0-.016-.031,0-.033a3.894,3.894,0,0,1,3.074.824,2.691,2.691,0,0,1,.592.728c.008.016.033.006.031-.012a2.7,2.7,0,0,0-.623-1.5,3.537,3.537,0,0,0-3.819-.947.016.016,0,0,1-.019-.025,2.527,2.527,0,0,1,2.974-.8.017.017,0,0,0,.02-.026,2.481,2.481,0,0,0-4.092.181.016.016,0,0,1-.027,0,7.2,7.2,0,0,1-.317-.647,7.005,7.005,0,0,1-.409-1.634.022.022,0,0,0-.043,0,7,7,0,0,1-.409,1.634,7.1,7.1,0,0,1-.317.647.016.016,0,0,1-.027,0,2.481,2.481,0,0,0-4.091-.181.017.017,0,0,0,.019.026,2.527,2.527,0,0,1,2.974.8.017.017,0,0,1-.02.025,3.536,3.536,0,0,0-3.819.947,2.705,2.705,0,0,0-.624,1.5c0,.018.023.028.032.012a2.682,2.682,0,0,1,.592-.728,3.893,3.893,0,0,1,3.074-.824c.02,0,.023.03,0,.033a4.07,4.07,0,0,0-3.077,2.466,4.431,4.431,0,0,0-.035,2.756c.005.018.033.017.033,0s0-.051,0-.076a4.083,4.083,0,0,1,2.986-4.011.017.017,0,0,1,.015.029,5,5,0,0,0-1.359,6.172.017.017,0,0,0,.032-.008,5.073,5.073,0,0,1,1.712-4.739c.014-.012.037,0,.027.02a5.3,5.3,0,0,0,.649,5.986c.012.014.038,0,.03-.015-.356-.857-.834-3.857.869-4.931a.017.017,0,0,1,.026.012,65.9,65.9,0,0,1-.166,11.649c-2.751-1.6-7.561-4.067-11.043-4.067a5.613,5.613,0,0,0-1.907.294c4.6.727,10.056,3.929,12.35,5.384-1.48.924-6.219,3.854-6.787,3.854-.289,0-.329-.347-.573-.347a.2.2,0,0,0-.22.227c0,.985,1.343,1.623,2.429,1.114l6.642-3.84,6.642,3.84c1.085.508,2.428-.13,2.428-1.114a.2.2,0,0,0-.22-.227c-.243,0-.284.347-.573.347-.569,0-5.306-2.93-6.787-3.854,2.294-1.455,7.747-4.657,12.35-5.384A5.613,5.613,0,0,0,303.933,234.5Z" transform="translate(-275.224 -216.614)" fill="#006429"/>
    </g>
    <path id="Path_6243" data-name="Path 6243" d="M375.2,251.142c2.22.184,6.911.762,8.346-.27h0c.08.406-1.44,1.894-6.128,1.582-3.945-.26-9.081-.837-10.507.35h0C367.287,251.114,370.614,250.762,375.2,251.142Z" transform="translate(-283.376 -188.151)" fill="#4a5c60"/>
    <path id="Path_6244" data-name="Path 6244" d="M191.041,289.359l.505.992,12.311-6.279Z" transform="translate(-171.15 -209.336)" fill="#4a5c60"/>
    <path id="Path_6245" data-name="Path 6245" d="M428.288,284.733l-1.662.035h0l2.416,1.1.715-1.17h0l-.819.017Z" transform="translate(-321.479 -209.738)" fill="#4a5c60"/>
    <path id="Path_6246" data-name="Path 6246" d="M396.209,290.808l-11.524-6a8.6,8.6,0,0,0-5.152-.89l5.4,7.582,8.475,4.788-.525,1.265,4.148,2.113,1.24-2.434A4.791,4.791,0,0,0,396.209,290.808Z" transform="translate(-291.429 -209.186)" fill="#4a5c60"/>
    <path id="Path_6247" data-name="Path 6247" d="M303.981,328.536a10.742,10.742,0,0,0-.761-1.314A6.627,6.627,0,0,1,301,333.446h0l1.81-1.254s-1.488,4.123-4.8,5.694-8.389,3.248-8.389,3.78c0-.538-5.344-2.209-8.657-3.78s-4.8-5.694-4.8-5.694l2.714,1.133h0l.977-.184a8.857,8.857,0,0,1-2.85-3.033,8.508,8.508,0,0,1-.453-.907,6.978,6.978,0,0,1-.533-1.98,10.746,10.746,0,0,0-.762,1.314c-.093.192-.178.385-.255.577a7.784,7.784,0,0,0,.319,6.543l.739-1.033c2.014,5.883,10.5,5.593,13.561,9.824h0c3.057-4.23,11.548-3.94,13.561-9.823l.739,1.033a7.785,7.785,0,0,0,.319-6.543Q304.121,328.824,303.981,328.536Z" transform="translate(-224.357 -236.871)" fill="#4a5c60"/>
    <path id="Path_6248" data-name="Path 6248" d="M422.373,192.878h0Z" transform="translate(-318.765 -151.144)" fill="#4a5c60"/>
    <path id="Path_6249" data-name="Path 6249" d="M228.276,251.142c-2.22.184-6.911.762-8.347-.27h0c-.08.406,1.44,1.894,6.129,1.582,3.945-.26,9.081-.837,10.507.35h0C236.192,251.114,232.865,250.762,228.276,251.142Z" transform="translate(-189.583 -188.151)" fill="#4a5c60"/>
    <path id="Path_6250" data-name="Path 6250" d="M222.217,242.955a4.535,4.535,0,0,0-.473-.637c-2.305-2.59-6.742-1.127-11.385-.705-4.014.364-5.59.045-6.876-.51-.849-.367-.912-.511-.912-.511h0a.186.186,0,0,0-.011.067c0,.592,2.013,2.734,7.908,2.313,5.32-.379,9.52-1.388,11.748-.017Z" transform="translate(-178.501 -181.591)" fill="#4a5c60"/>
    <path id="Path_6251" data-name="Path 6251" d="M375.941,242.955a4.535,4.535,0,0,1,.473-.637c2.305-2.59,6.742-1.127,11.384-.705,4.014.364,5.59.045,6.876-.51.849-.367.912-.511.912-.511h0a.186.186,0,0,1,.011.067c0,.592-2.013,2.734-7.908,2.313-5.32-.379-9.52-1.388-11.748-.017Z" transform="translate(-289.137 -181.591)" fill="#4a5c60"/>
    <path id="Path_6252" data-name="Path 6252" d="M411.47,314.632l2.312,1.307-.526,1.265Z" transform="translate(-311.808 -228.837)" fill="#97aab1"/>
    <path id="Path_6253" data-name="Path 6253" d="M224.047,195.16l-5.123-2.61-.567-.289-1.057-.539.141-.254a.725.725,0,0,0-.293-.962l-3.208-1.787-.554-.309-4.977-2.774-.553-.308-3.4-1.9-.731,1.436-1.338,2.625h0l-.706,1.385.844.422.046-.091a2.844,2.844,0,0,1,3.815-1.247l10.218,5.159-.654,1.284.531-.127a4.526,4.526,0,0,1,3.061.367l10,5.035q.568-.583,1.195-1.114l-6.107-3.112Z" transform="translate(-177.937 -145.116)" fill="#97aab1"/>
    <path id="Path_6254" data-name="Path 6254" d="M345.008,333.446a6.627,6.627,0,0,0,2.223-6.224,6.98,6.98,0,0,1-.534,1.98,8.412,8.412,0,0,1-.453.907,8.852,8.852,0,0,1-2.85,3.033l1.614.3Z" transform="translate(-268.368 -236.871)" fill="#97aab1"/>
    <path id="Path_6255" data-name="Path 6255" d="M298.026,322.085a4.591,4.591,0,0,1-.96-.1h0a17.967,17.967,0,0,0-3.439,1.384,5.149,5.149,0,0,0-.948.627V303.307q-.879,0-1.742-.073v15.039a3.886,3.886,0,0,1-.973,2.831c-2.044,2.1-6.965.71-8.664-2.965l.636-.12-2.714-1.133s1.488,4.123,4.8,5.694,8.657,3.242,8.657,3.78c0-.532,5.076-2.209,8.389-3.78s4.8-5.694,4.8-5.694l-1.809,1.254A6.959,6.959,0,0,1,298.026,322.085Z" transform="translate(-227.419 -221.564)" fill="#97aab1"/>
    <rect id="Rectangle_1667" data-name="Rectangle 1667" width="0.001" height="8.25" transform="translate(62.578 40.416)" fill="#97aab1"/>
    <path id="Path_6256" data-name="Path 6256" d="M309.926,138.9a12.1,12.1,0,0,1-2.006.258h0c-.61.039-1.257.045-2.172.045a.593.593,0,0,0,.191.314,1.305,1.305,0,0,0,.235.182,3.277,3.277,0,0,0,1.239.392c.154.023.322.042.506.056v19.986a19.926,19.926,0,0,0-4.814.582v-7.248a1.193,1.193,0,0,1,.659-1.067l1.023-.579a1.381,1.381,0,0,0-.675,1.432l.058.338,1.067,6.223V140.331a15.336,15.336,0,0,1,1-5.447l1.681-4.681v7h0C307.92,138.215,308.031,138.811,309.926,138.9Z" transform="translate(-242.66 -111.151)" fill="#97aab1"/>
    <path id="Path_6257" data-name="Path 6257" d="M211.731,297.788l-12.314,6.273.505.992h0Z" transform="translate(-176.496 -218.088)" fill="#97aab1"/>
    <path id="Path_6258" data-name="Path 6258" d="M422.373,192.878Z" transform="translate(-318.766 -151.144)" fill="#97aab1"/>
    <path id="Path_6259" data-name="Path 6259" d="M430.226,240.592h0Z" transform="translate(-323.777 -181.591)" fill="#97aab1"/>
    <path id="Path_6260" data-name="Path 6260" d="M413.479,354.421h0Z" transform="translate(-313.09 -254.227)" fill="#97aab1"/>
    <path id="Path_6261" data-name="Path 6261" d="M202.591,240.592h0Z" transform="translate(-178.521 -181.591)" fill="#97aab1"/>
    <path id="Path_6262" data-name="Path 6262" d="M234.661,258.616a.266.266,0,0,1-.016-.022h0Z" transform="translate(-198.975 -193.079)" fill="#97aab1"/>
    <path id="Path_6263" data-name="Path 6263" d="M245.957,255.947h0c-2.249-.657-9.846,1.078-11.312.863h0a.176.176,0,0,0,.014.02c.337.409,3.078.371,6.284.274a13.666,13.666,0,0,1,5.134.452C246,256.221,245.959,255.956,245.957,255.947Z" transform="translate(-198.975 -191.294)" fill="#97aab1"/>
    <path id="Path_6264" data-name="Path 6264" d="M236.539,249.864a5.082,5.082,0,0,0-2.854-3c-.128-.06-.255-.113-.381-.158h0c-1.808-.651-3.6.139-9.531,1.14a18.057,18.057,0,0,1-3.832.218h-.007c1.435,1.032,6.126.455,8.347.27,4.589-.381,7.915-.028,8.29,1.661C236.562,249.95,236.552,249.907,236.539,249.864Z" transform="translate(-189.588 -185.34)" fill="#97aab1"/>
    <path id="Path_6265" data-name="Path 6265" d="M222.078,240.877a7,7,0,0,0-2.632-2.616c-1.907-.963-4.075-.4-7.2-.019-4.233.516-8.167,1.089-9.654.522,0,0,.064.144.912.511,1.285.555,2.861.874,6.876.51,4.643-.422,9.08-1.885,11.385.705a4.538,4.538,0,0,1,.473.637h0C222.184,241.042,222.131,240.959,222.078,240.877Z" transform="translate(-178.521 -179.764)" fill="#97aab1"/>
    <path id="Path_6266" data-name="Path 6266" d="M398.129,258.616c.005-.007.011-.015.016-.022h0A.2.2,0,0,1,398.129,258.616Z" transform="translate(-303.295 -193.079)" fill="#97aab1"/>
    <path id="Path_6267" data-name="Path 6267" d="M366.7,255.947h0c2.25-.657,9.847,1.078,11.312.863h0a.173.173,0,0,1-.015.02c-.337.409-3.077.371-6.284.274a13.667,13.667,0,0,0-5.135.452C366.661,256.221,366.7,255.956,366.7,255.947Z" transform="translate(-283.164 -191.294)" fill="#97aab1"/>
    <path id="Path_6268" data-name="Path 6268" d="M366.946,249.864a5.082,5.082,0,0,1,2.853-3c.128-.06.254-.113.381-.158h0c1.808-.651,3.6.139,9.531,1.14a18.057,18.057,0,0,0,3.832.218h.006c-1.435,1.032-6.126.455-8.346.27-4.589-.381-7.916-.028-8.289,1.661A1.287,1.287,0,0,1,366.946,249.864Z" transform="translate(-283.376 -185.34)" fill="#97aab1"/>
    <path id="Path_6269" data-name="Path 6269" d="M376.1,240.877a7,7,0,0,1,2.632-2.616c1.907-.963,4.075-.4,7.2-.019,4.233.516,8.168,1.089,9.654.522,0,0-.063.144-.912.511-1.285.555-2.861.874-6.876.51-4.643-.422-9.079-1.885-11.384.705a4.536,4.536,0,0,0-.473.637h0C375.994,241.042,376.047,240.959,376.1,240.877Z" transform="translate(-289.137 -179.764)" fill="#97aab1"/>
    <path id="Path_6270" data-name="Path 6270" d="M219.339,354.421h0Z" transform="translate(-189.208 -254.227)" fill="#97aab1"/>
    <path id="Path_6271" data-name="Path 6271" d="M209.339,266.813l-1.152.587h0l-4.369.66-.624.094-5.606.847-.623.094-.543.082a36.535,36.535,0,0,0-4.932,1.386q-.3.107-.6.219h0a36.474,36.474,0,0,0-3.682,1.626l-1.133.577,1.8,3.524,12.816-5.287L188.38,277.5l-1.266.635-.567.285h0a49.416,49.416,0,0,0,2.179,5.133h0a2.851,2.851,0,0,1,1.246-3.835l25.855-13.158a14.868,14.868,0,0,1-.608-2.55l-.233-.076-5.065,2.581Z" transform="translate(-167.984 -196.488)" fill="#97aab1"/>
    <path id="Path_6272" data-name="Path 6272" d="M208.2,227.193a12.674,12.674,0,0,0-5.446-1.639h0q-.322-.03-.657-.051h0c-.474-.03-.965-.046-1.477-.05-1.4-.009-2.933.073-4.572.177l-.674.043h0c-.862.056-1.7.113-2.537.161-1.164.068-2.326.122-3.434.136q-.329,0-.651,0h0l-.736,0a21.267,21.267,0,0,1-4.9-.8h0c-.229-.068-.431-.137-.6-.2h0a2.3,2.3,0,0,1-.335-.16.76.76,0,0,1-.073-.049h0l.134.144c3.7,3.907,9.151,2.527,19.7,2.113,4.963-.194,8.2,3.464,10.738,7.665a14.848,14.848,0,0,1,.428-1.963h0a14.076,14.076,0,0,0-2.433-3.56,12.941,12.941,0,0,0-1.947-1.622q-.266-.179-.538-.341Z" transform="translate(-165.453 -171.487)" fill="#97aab1"/>
    <path id="Path_6273" data-name="Path 6273" d="M369.413,227.533q.266-.179.539-.341h0a12.671,12.671,0,0,1,5.446-1.639h0q.323-.03.657-.051h0c.474-.03.965-.046,1.478-.05,1.4-.009,2.933.073,4.572.177l.674.043h0c.862.056,1.7.113,2.536.161,1.164.068,2.326.122,3.434.136q.328,0,.651,0h0l.735,0a21.271,21.271,0,0,0,4.9-.8h0c.229-.068.432-.137.6-.2h0a2.285,2.285,0,0,0,.335-.16.722.722,0,0,0,.073-.049h0l-.133.144c-3.7,3.907-9.151,2.527-19.705,2.113-4.962-.194-8.2,3.464-10.738,7.665a14.837,14.837,0,0,0-.428-1.963h0a14.078,14.078,0,0,1,2.433-3.56A12.957,12.957,0,0,1,369.413,227.533Z" transform="translate(-282.176 -171.487)" fill="#97aab1"/>
    <path id="Path_6274" data-name="Path 6274" d="M298.084,80.1a1.948,1.948,0,0,1-.506.928c-.269.32-.616.675-.984,1.139-1.924.942-7.324.326-7.324,5.71a4.73,4.73,0,0,0,1.9,3.779,4.435,4.435,0,0,1-3.389-3.68,5.323,5.323,0,0,1,3.067-5.7c2.057-1.028,6.121-.936,7.042-2.181A1.939,1.939,0,0,0,298.084,80.1Z" transform="translate(-232.824 -79.176)" fill="#7c6a2e"/>
    <path id="Path_6275" data-name="Path 6275" d="M279.74,88.1c-.106.185-.211.378-.312.583-.016.032-.033.065-.049.1h0a3.987,3.987,0,0,0-3.064,3.877,3.459,3.459,0,0,0,.574,2.054c.08.109.162.21.247.3l0,0,0,0a4.422,4.422,0,0,1-.389-6.024,8.691,8.691,0,0,1,3.228-2.751l.026-.014A5.071,5.071,0,0,0,279.74,88.1Z" transform="translate(-225.203 -83.089)" fill="#7c6a2e"/>
    <path id="Path_6276" data-name="Path 6276" d="M283.007,115.661H283a6.9,6.9,0,0,1,3.233,4.884,21,21,0,0,1,8.857-1.8C291.052,114.931,285.158,115.72,283.007,115.661Z" transform="translate(-229.831 -101.852)" fill="#7c6a2e"/>
    <path id="Path_6277" data-name="Path 6277" d="M316.409,80.1a1.944,1.944,0,0,0,.506.928c.268.32.616.675.984,1.139,1.924.942,7.324.326,7.324,5.71a4.729,4.729,0,0,1-1.9,3.779,4.435,4.435,0,0,0,3.389-3.68,5.323,5.323,0,0,0-3.068-5.7c-2.057-1.028-6.121-.936-7.041-2.181A1.944,1.944,0,0,1,316.409,80.1Z" transform="translate(-251.149 -79.176)" fill="#7c6a2e"/>
    <path id="Path_6278" data-name="Path 6278" d="M345.581,88.1c.106.185.211.378.312.583.016.032.033.065.049.1h0a3.987,3.987,0,0,1,3.064,3.877,3.458,3.458,0,0,1-.574,2.054c-.08.109-.162.21-.247.3h0a4.422,4.422,0,0,0,.389-6.024,8.694,8.694,0,0,0-3.228-2.751l-.026-.014A5.064,5.064,0,0,1,345.581,88.1Z" transform="translate(-269.597 -83.089)" fill="#7c6a2e"/>
    <path id="Path_6279" data-name="Path 6279" d="M297.591,80.695l.026.014a8.694,8.694,0,0,1,3.228,2.751,4.422,4.422,0,0,1-.389,6.024l0,0h0a4.321,4.321,0,0,1-4.152,1.124l-.171-.044c.4.093,2.707-1.57,2.707-4.306a7.913,7.913,0,0,0-.182-1.659,6.646,6.646,0,0,0-.439-1.355h0c-.016-.035-.033-.068-.049-.1-.1-.205-.206-.4-.312-.583-2.669-4.632-6.86-3.146-9.086-5.007a1.921,1.921,0,0,1-.6.624,1.9,1.9,0,0,1-.837.293c.921,1.246,4.984,1.153,7.041,2.181a5.323,5.323,0,0,1,3.068,5.7,4.435,4.435,0,0,1-3.389,3.68c-1.123-.245-1.908-.443-2.731-.588a19.443,19.443,0,0,0-2.963-.275,10.448,10.448,0,0,0,.8-2.391,10.853,10.853,0,0,0,.237-2.227,10.627,10.627,0,0,0-.772-4.008h0c-.735-.925-1.391-1.419-1.489-2.064h0c-.1.645-.754,1.139-1.489,2.064h0a10.621,10.621,0,0,0-.772,4.008,10.828,10.828,0,0,0,.237,2.227,10.462,10.462,0,0,0,.8,2.391,19.439,19.439,0,0,0-2.963.275c-.823.145-1.608.343-2.731.588a4.435,4.435,0,0,1-3.389-3.68,5.323,5.323,0,0,1,3.067-5.7c2.057-1.029,6.121-.936,7.042-2.181a1.9,1.9,0,0,1-.837-.293,1.917,1.917,0,0,1-.6-.624c-2.226,1.861-6.417.375-9.086,5.007-.106.185-.211.378-.312.583-.016.032-.033.065-.049.1h0A6.647,6.647,0,0,0,275.6,84.6a7.889,7.889,0,0,0-.182,1.659c0,2.736,2.311,4.4,2.707,4.306l-.171.044a4.321,4.321,0,0,1-4.152-1.124h0l0,0a4.422,4.422,0,0,1-.389-6.024,8.69,8.69,0,0,1,3.228-2.751l.026-.014a6.433,6.433,0,0,0-5.411,9.407c.08.153.168.3.259.445.119-.007.236-.018.356-.018a6.3,6.3,0,0,1,3.168.838h.007c2.15.059,8.044-.729,12.083,3.08h0c4.039-3.809,9.933-3.021,12.083-3.08h.005a6.307,6.307,0,0,1,3.17-.837c.12,0,.237.011.356.018.091-.145.179-.293.259-.445a6.433,6.433,0,0,0-5.411-9.407Z" transform="translate(-221.869 -77.558)" fill="#c9a765"/>
    <path id="Path_6280" data-name="Path 6280" d="M328.493,115.661h.007a6.905,6.905,0,0,0-3.234,4.884,21,21,0,0,0-8.856-1.8C320.447,114.931,326.342,115.72,328.493,115.661Z" transform="translate(-251.149 -101.852)" fill="#7c6a2e"/>
    <path id="Path_6281" data-name="Path 6281" d="M279.283,164.421l-.134.144c-3.7,3.907-9.151,2.527-19.705,2.113-4.962-.194-8.2,3.464-10.738,7.664a14.843,14.843,0,0,0-.428-1.963,15.107,15.107,0,0,0-.723-1.97q-.165-.369-.348-.728l-.012-.023-.022-.043a15.732,15.732,0,0,0-1.145-1.885l15.825-8.063a17.408,17.408,0,0,0,7.176-6.784l-4.613,2.328c-.086.046-2.15,1.17-1.578,2.819,0,0-1.777-2.029-1.935-3.43a14.85,14.85,0,0,0,.046,2.362L244.131,165.5a16.815,16.815,0,0,0-2.308-1.9l5.462-7.025-.264-2.218,12.362-15.941-.536-.423-11.417,14.7-7.511,9.748-.064-.035h-.005a18.162,18.162,0,0,0-4.351-1.686v-7.248a1.194,1.194,0,0,0-.659-1.067l-1.474-.834V140.331a15.328,15.328,0,0,0-1-5.447l-1.681-4.681h0v7h0c0,1.015.111,1.611,2.006,1.7a12.1,12.1,0,0,1-2.006.258h0c-.61.039-1.257.045-2.172.045,0,0,.027.25.427.5a3.283,3.283,0,0,0,1.238.392c.154.023.322.042.506.056h0v19.986a19.942,19.942,0,0,0-4.814.582,20.385,20.385,0,0,0-4.434,1.705l-18.9-24.413-.548.408,12.362,15.941-.264,2.218,5.456,7.017a16.6,16.6,0,0,0-1.324,1q-.625.53-1.195,1.114l-10-5.035a4.526,4.526,0,0,0-3.061-.367l-.531.127.654-1.284-10.218-5.159a2.844,2.844,0,0,0-3.815,1.247l-.046.091,12.343,5.691a.724.724,0,0,0,.95-.328l.132-.259,12.6,6.382a15.776,15.776,0,0,0-2.943,5.562,14.849,14.849,0,0,0-.428,1.963c-2.535-4.2-5.775-7.859-10.738-7.664-10.553.414-16.008,1.794-19.7-2.113l-.134-.144c-.1.288.241.9.422,1.162.962,1.421,3.655,3.512,9.457,3.2,5.906-.317,8.939-.531,10.916-.351a7.281,7.281,0,0,1,3.472,1.217,7,7,0,0,1,2.632,2.616c.053.082.106.165.159.251h0c.127.046.253.1.381.158a5.082,5.082,0,0,1,2.854,3c.013.043.024.086.033.129h0c0,.009.04.274.12,1.608a13.667,13.667,0,0,0-5.134-.452c-3.206.1-5.947.135-6.284-.274h0c.313.439,2.2,1.307,5.409,1.237a19.068,19.068,0,0,1,5.905.675l.233.076a14.869,14.869,0,0,0,.608,2.55l-25.855,13.158a2.851,2.851,0,0,0-1.246,3.835l2.181-1.1,12.314-6.273-11.809,7.265,1.791,3.516,1.133-.578A36.576,36.576,0,0,0,199.8,195.5l8.458-8.527,6.158-3.138.005.009a16.136,16.136,0,0,0,1.667,2.438,18.181,18.181,0,0,0,8.075,5.522,19.729,19.729,0,0,0,4.776,1.014h0q.861.074,1.742.073v20.692s1.065-1,4.387-2.011a3.238,3.238,0,0,1-1.67-.884,3.886,3.886,0,0,1-.974-2.83V192.821a19.71,19.71,0,0,0,4.776-1.013,18.179,18.179,0,0,0,8.075-5.522,16.288,16.288,0,0,0,1.364-1.917h0a15.777,15.777,0,0,0,.835-1.567l0,0,6.053,3.078a7.691,7.691,0,0,0-3.467-3.526l-2.007-1.008a14.446,14.446,0,0,0,.656-2.674l.233-.076a19.067,19.067,0,0,1,5.905-.675c3.2.07,5.1-.8,5.408-1.237v0c-.337.409-3.077.371-6.283.274a13.667,13.667,0,0,0-5.134.452c.08-1.334.118-1.6.12-1.608h0c.008-.043.02-.086.032-.129a5.084,5.084,0,0,1,2.854-3c.128-.06.254-.113.381-.158h0c.053-.086.106-.169.159-.251a7,7,0,0,1,2.632-2.616,7.279,7.279,0,0,1,3.472-1.217c1.977-.179,5.01.034,10.916.351,5.8.313,8.495-1.779,9.457-3.2C279.057,165.295,279.379,164.7,279.283,164.421Zm-48.6,28.127a16.05,16.05,0,1,1,16.05-16.05A16.05,16.05,0,0,1,230.682,192.549Z" transform="translate(-165.422 -111.151)" fill="#4a5c60"/>
    <path id="Path_6282" data-name="Path 6282" d="M390.055,273.918l-.715,1.17-2.416-1.1-3.76-1.717-.585-.267-2.093-.956-3.5.035-.647.007-5,.049-.753-.384-.572-.291-5.2-2.658c-.106.434-.237.879-.4,1.351l2.007,1.008a7.694,7.694,0,0,1,3.446,3.484l.021.041h0a8.6,8.6,0,0,1,5.152.89l11.524,6A4.791,4.791,0,0,1,388.614,287l-1.24,2.434,6.829-13.4-4.148-2.113Z" transform="translate(-281.778 -198.954)" fill="#97aab1"/>
    <g id="Group_1096" data-name="Group 1096" transform="translate(70.657 26.086)">
      <path id="Path_6283" data-name="Path 6283" d="M335.092,174.806h.005l.064.035,7.511-9.748,11.417-14.7-.959-.757-9.518,12.228L335.6,172.216l6.876-11.237-7.064,8.609-1.082.04-3.008,3.646A18.274,18.274,0,0,1,335.092,174.806Z" transform="translate(-331.323 -149.641)" fill="#97aab1"/>
    </g>
    <path id="Path_6284" data-name="Path 6284" d="M355.808,178.964l0,0-.937-.742a2.076,2.076,0,0,0-.673-.369c-.688-.166-1.259.38-1.408,1.661l-.574,3.827Z" transform="translate(-274 -141.536)" fill="#4a5c60"/>
    <path id="Path_6285" data-name="Path 6285" d="M335.563,176.629c.013-.113.033-.212.052-.313a30.469,30.469,0,0,0-10.4-3.011v.633a29.837,29.837,0,0,1,10.3,3.025Z" transform="translate(-256.77 -138.655)" fill="#76858b"/>
    <path id="Path_6286" data-name="Path 6286" d="M351.138,181.886l-1.118-.915-6.876,11.237Z" transform="translate(-268.209 -143.547)" fill="#4a5c60"/>
    <g id="Group_1097" data-name="Group 1097" transform="translate(37.108 26.086)">
      <path id="Path_6287" data-name="Path 6287" d="M238.617,150.413l18.9,24.412a20.294,20.294,0,0,1,3.853-1.549l-3.009-3.648-1.082-.04-7.064-8.609-1.136.89-9.518-12.228Z" transform="translate(-238.617 -149.641)" fill="#97aab1"/>
    </g>
    <path id="Path_6288" data-name="Path 6288" d="M274.265,183.338l-.574-3.827c-.148-1.281-.72-1.828-1.408-1.661a2.076,2.076,0,0,0-.673.369l-.937.742Z" transform="translate(-221.965 -141.536)" fill="#4a5c60"/>
    <path id="Path_6289" data-name="Path 6289" d="M278.866,176.314c.02.1.04.2.053.316l.05.337a29.858,29.858,0,0,1,10.295-3.028v-.632A30.469,30.469,0,0,0,278.866,176.314Z" transform="translate(-227.193 -138.656)" fill="#76858b"/>
    <path id="Path_6290" data-name="Path 6290" d="M275.545,192.208l-6.876-11.237-1.136.89Z" transform="translate(-219.961 -143.547)" fill="#4a5c60"/>
    <path id="Path_6291" data-name="Path 6291" d="M360.006,196.938l-.573.292-5.183,2.64-.581.3-6.435,3.279a16.8,16.8,0,0,1,2.293,1.885l16.817-8.535a14.85,14.85,0,0,1-.046-2.362h0a2.7,2.7,0,0,0,.128.55,6.17,6.17,0,0,0,.553,1.151c.112.187.229.369.345.54a13.675,13.675,0,0,0,.908,1.19,1.75,1.75,0,0,1-.1-.592,2.592,2.592,0,0,1,1.159-1.884,4.524,4.524,0,0,1,.4-.275c.153-.092-.311.149,4.729-2.395a17.555,17.555,0,0,0-2.032-.089h0q-.368.005-.736.026a17.387,17.387,0,0,0-5.929,1.407q-.295.128-.587.267h0c-.141.068-.282.136-.423.208Z" transform="translate(-270.819 -150.984)" fill="#97aab1"/>
    <path id="Path_6292" data-name="Path 6292" d="M369.593,289.854a24.452,24.452,0,0,0,2.723-4.559l-.561-.286a23.772,23.772,0,0,1-2.581,4.337Z" transform="translate(-284.819 -209.934)" fill="#76858b"/>
    <path id="Path_6293" data-name="Path 6293" d="M379.262,304.687a30.928,30.928,0,0,0,3.451-4.713l-.4-.561a30.3,30.3,0,0,1-3.449,4.788Z" transform="translate(-291.002 -219.126)" fill="#76858b"/>
    <path id="Path_6294" data-name="Path 6294" d="M390.4,317.226a37.206,37.206,0,0,0,4.293-5.543l-.548-.309a36.629,36.629,0,0,1-4.148,5.361Z" transform="translate(-298.104 -226.757)" fill="#76858b"/>
    <path id="Path_6295" data-name="Path 6295" d="M401.522,329.243a43.614,43.614,0,0,0,4.981-6.156l-.386-.556a43.027,43.027,0,0,1-5,6.223Z" transform="translate(-305.204 -233.877)" fill="#76858b"/>
    <path id="Path_6296" data-name="Path 6296" d="M222.152,329.068a43.025,43.025,0,0,1-4.879-6.045c-.175.115-.356.218-.533.331h0a43.615,43.615,0,0,0,5.011,6.2Z" transform="translate(-187.549 -234.191)" fill="#76858b"/>
    <path id="Path_6297" data-name="Path 6297" d="M235.08,317.36a36.6,36.6,0,0,1-3.92-5.007l-.472.429a37.21,37.21,0,0,0,3.988,5.069Z" transform="translate(-196.45 -227.383)" fill="#76858b"/>
    <path id="Path_6298" data-name="Path 6298" d="M247.166,304.356a30.279,30.279,0,0,1-3.4-4.688l-.458.462a30.9,30.9,0,0,0,3.455,4.719Z" transform="translate(-204.502 -219.288)" fill="#76858b"/>
    <path id="Path_6299" data-name="Path 6299" d="M258.943,291.086a23.8,23.8,0,0,1-2.1-3.356l-.561.285a24.474,24.474,0,0,0,2.25,3.569Z" transform="translate(-212.782 -211.671)" fill="#76858b"/>
    <path id="Path_6300" data-name="Path 6300" d="M249.049,145.543q-.2.134-.4.27l.387.5q.2-.141.411-.279a42.414,42.414,0,0,1,21.963-7.159l.229-.638A43.043,43.043,0,0,0,249.049,145.543Z" transform="translate(-207.913 -116.276)" fill="#76858b"/>
    <path id="Path_6301" data-name="Path 6301" d="M285.152,194.482c.19-.1.38-.2.574-.3a23.634,23.634,0,0,1,5.187-1.84,1.682,1.682,0,0,1,.319-.713,24.251,24.251,0,0,0-5.916,2.054c-.193.1-.381.2-.571.3Z" transform="translate(-230.944 -150.35)" fill="#76858b"/>
    <path id="Path_6302" data-name="Path 6302" d="M335.654,194.185c.194.095.383.2.574.3l.409-.5c-.19-.1-.38-.2-.572-.3a24.275,24.275,0,0,0-5.917-2.054,1.69,1.69,0,0,1,.319.713A23.623,23.623,0,0,1,335.654,194.185Z" transform="translate(-259.915 -150.35)" fill="#76858b"/>
    <path id="Path_6303" data-name="Path 6303" d="M342.141,162.524l.388-.5c-.179-.121-.359-.241-.54-.359a36.781,36.781,0,0,0-17.01-5.815c.011.21.026.42.029.631a36.148,36.148,0,0,1,16.579,5.674Q341.866,162.337,342.141,162.524Z" transform="translate(-256.618 -127.518)" fill="#76858b"/>
    <path id="Path_6304" data-name="Path 6304" d="M343.239,146.309l.387-.5q-.2-.136-.4-.27a43.047,43.047,0,0,0-22.595-7.309l.229.638a42.409,42.409,0,0,1,21.964,7.159Q343.035,146.168,343.239,146.309Z" transform="translate(-253.846 -116.276)" fill="#76858b"/>
    <path id="Path_6305" data-name="Path 6305" d="M305.912,191.263l1.067,6.223v-8.249l-.444.252a1.381,1.381,0,0,0-.681,1.436Z" transform="translate(-244.401 -148.821)" fill="#4a5c60"/>
  </g>
  <path id="Path_6306" data-name="Path 6306" d="M229.3,316.64s.592,3.219,1.144,5.969c-.034-.089-.075-.172-.112-.259a9.6,9.6,0,0,0-.874-1.652h0a13.047,13.047,0,0,0-1.6-2.012h0c-2.575-.352-6.453.008-8.048,2.059a.642.642,0,0,0-.149.412.65.65,0,0,0,.3.551l10.415,5.161a.642.642,0,0,0,.343.1.656.656,0,0,0,.461-.191,1.288,1.288,0,0,0,.277-.7,66.229,66.229,0,0,1,8.851-19.345,2.513,2.513,0,0,1,.313-.4.773.773,0,0,1,1.094,0c.149.149.184.272.354.791.012.037,1.564,4.769,1.613,4.964a1.334,1.334,0,0,0,.32.6.806.806,0,0,0,.587.241,1.553,1.553,0,0,0,.862-.32l2.808-1.961s.085-.067.106-.088a.505.505,0,0,0,0-.713.491.491,0,0,0-.254-.136l-2.931-.546s0,.007-.007.014h0a16.449,16.449,0,0,0-1.082,2.334c.037-.6.207-3.366.275-4.4l-1.661-4.254a1.4,1.4,0,0,0-2.409-.35Z" transform="translate(-189.408 -214.346)" fill="#4a5c60"/>
  <path id="Path_6307" data-name="Path 6307" d="M203.6,331.879l0-.007.019-.029c.009-.013.019-.026.03-.039h0c.063-.081.131-.16.2-.236a48.8,48.8,0,0,1-8.944-12.285h0l-.566.275a49.861,49.861,0,0,0,9.167,12.558A.64.64,0,0,1,203.6,331.879Z" transform="translate(-173.258 -225.405)" fill="#76858b"/>
  <path id="Path_6308" data-name="Path 6308" d="M220.368,308.838c1.658-1.933,5.421-2.27,7.939-1.926h0a13.044,13.044,0,0,1,1.6,2.012h0a9.6,9.6,0,0,1,.874,1.652c.037.087.077.17.112.259-.552-2.749-1.144-5.969-1.144-5.969l10.992-14.147a1.4,1.4,0,0,1,2.409.35l1.661,4.254c-.068,1.036-.238,3.8-.275,4.4a16.449,16.449,0,0,1,1.082-2.334h0c0-.007,0-.01.007-.014l2.931.546a.49.49,0,0,1,.254.136.509.509,0,0,1,.109.163c-.219-.738-2.911-9.718-2.911-9.718a17.777,17.777,0,0,1-5.485-4.4q-.245-.3-.476-.6l-7.009,8.5.08,1.314Z" transform="translate(-189.865 -202.572)" fill="#97aab1"/>
  <path id="Path_6309" data-name="Path 6309" d="M352.633,316.64s-.592,3.219-1.143,5.969c.034-.089.075-.172.112-.259a9.616,9.616,0,0,1,.874-1.652h0a13.068,13.068,0,0,1,1.6-2.012h0c2.575-.352,6.453.008,8.048,2.059a.642.642,0,0,1,.149.412.65.65,0,0,1-.3.551l-10.415,5.161a.644.644,0,0,1-.343.1.654.654,0,0,1-.461-.191,1.286,1.286,0,0,1-.277-.7,66.218,66.218,0,0,0-8.851-19.345,2.5,2.5,0,0,0-.312-.4.773.773,0,0,0-1.094,0c-.149.149-.184.272-.354.791-.012.037-1.564,4.769-1.613,4.964a1.333,1.333,0,0,1-.32.6.807.807,0,0,1-.587.241,1.553,1.553,0,0,1-.862-.32l-2.808-1.961s-.085-.067-.106-.088a.5.5,0,0,1-.147-.357.508.508,0,0,1,.148-.356.491.491,0,0,1,.254-.136l2.931-.546s0,.007.007.014h0a16.445,16.445,0,0,1,1.082,2.334c-.037-.6-.207-3.366-.275-4.4l1.661-4.254a1.4,1.4,0,0,1,2.409-.35Z" transform="translate(-262.006 -214.346)" fill="#4a5c60"/>
  <path id="Path_6310" data-name="Path 6310" d="M427.131,239.748a49.6,49.6,0,0,0-1.06-10.221,5.066,5.066,0,0,1-.5.7,48.994,48.994,0,0,1-4.754,32.4h0a48.747,48.747,0,0,1-8.62,11.667c.07.076.136.153.2.234h0q.016.02.03.04l.018.028,0,.008a.643.643,0,0,1,.088.237,49.87,49.87,0,0,0,8.839-11.929h0A49.286,49.286,0,0,0,427.131,239.748Z" transform="translate(-312.274 -168.131)" fill="#76858b"/>
  <path id="Path_6311" data-name="Path 6311" d="M362.091,308.838c-1.657-1.933-5.421-2.27-7.939-1.926h0a13.063,13.063,0,0,0-1.6,2.012h0a9.609,9.609,0,0,0-.874,1.652c-.037.087-.077.17-.111.259.551-2.749,1.143-5.969,1.143-5.969L341.71,290.72a1.4,1.4,0,0,0-2.409.35l-1.661,4.254c.068,1.036.238,3.8.275,4.4a16.445,16.445,0,0,0-1.082-2.334h0c0-.007,0-.01-.007-.014l-2.931.546a.49.49,0,0,0-.254.136.505.505,0,0,0-.109.163c.219-.738,2.911-9.718,2.911-9.718a17.773,17.773,0,0,0,5.485-4.4q.245-.3.476-.6l7.009,8.5-.08,1.314Z" transform="translate(-262.075 -202.572)" fill="#97aab1"/>
</svg>
